solid Exported from Blender-2.76 (sub 0)
facet normal 0.098019 0.995185 0.000000
outer loop
vertex -0.025000 0.060500 0.019500
vertex -0.025000 0.060500 0.074500
vertex -0.024512 0.060452 0.074500
endloop
endfacet
facet normal 0.098019 0.995185 0.000000
outer loop
vertex -0.024512 0.060452 0.074500
vertex -0.024512 0.060452 0.019500
vertex -0.025000 0.060500 0.019500
endloop
endfacet
facet normal 0.290287 0.956939 0.000000
outer loop
vertex -0.024512 0.060452 0.019500
vertex -0.024512 0.060452 0.074500
vertex -0.024043 0.060310 0.074500
endloop
endfacet
facet normal 0.290285 0.956940 0.000000
outer loop
vertex -0.024043 0.060310 0.074500
vertex -0.024043 0.060310 0.019500
vertex -0.024512 0.060452 0.019500
endloop
endfacet
facet normal 0.471398 0.881921 0.000000
outer loop
vertex -0.024043 0.060310 0.019500
vertex -0.024043 0.060310 0.074500
vertex -0.023611 0.060079 0.074500
endloop
endfacet
facet normal 0.471391 0.881925 0.000000
outer loop
vertex -0.023611 0.060079 0.074500
vertex -0.023611 0.060079 0.019500
vertex -0.024043 0.060310 0.019500
endloop
endfacet
facet normal 0.634396 0.773008 0.000000
outer loop
vertex -0.023611 0.060079 0.019500
vertex -0.023611 0.060079 0.074500
vertex -0.023232 0.059768 0.074500
endloop
endfacet
facet normal 0.634396 0.773008 0.000000
outer loop
vertex -0.023232 0.059768 0.074500
vertex -0.023232 0.059768 0.019500
vertex -0.023611 0.060079 0.019500
endloop
endfacet
facet normal 0.773011 0.634393 0.000000
outer loop
vertex -0.023232 0.059768 0.019500
vertex -0.023232 0.059768 0.074500
vertex -0.022921 0.059389 0.074500
endloop
endfacet
facet normal 0.773007 0.634398 0.000000
outer loop
vertex -0.022921 0.059389 0.074500
vertex -0.022921 0.059389 0.019500
vertex -0.023232 0.059768 0.019500
endloop
endfacet
facet normal 0.881924 0.471392 0.000000
outer loop
vertex -0.022921 0.059389 0.019500
vertex -0.022921 0.059389 0.074500
vertex -0.022690 0.058957 0.074500
endloop
endfacet
facet normal 0.881924 0.471392 0.000000
outer loop
vertex -0.022690 0.058957 0.074500
vertex -0.022690 0.058957 0.019500
vertex -0.022921 0.059389 0.019500
endloop
endfacet
facet normal 0.956938 0.290293 0.000000
outer loop
vertex -0.022690 0.058957 0.019500
vertex -0.022690 0.058957 0.074500
vertex -0.022548 0.058488 0.074500
endloop
endfacet
facet normal 0.956940 0.290285 0.000000
outer loop
vertex -0.022548 0.058488 0.074500
vertex -0.022548 0.058488 0.019500
vertex -0.022690 0.058957 0.019500
endloop
endfacet
facet normal 0.995184 0.098022 0.000000
outer loop
vertex -0.022548 0.058488 0.019500
vertex -0.022548 0.058488 0.074500
vertex -0.022500 0.058000 0.074500
endloop
endfacet
facet normal 0.995186 0.098005 0.000000
outer loop
vertex -0.022500 0.058000 0.074500
vertex -0.022500 0.058000 0.019500
vertex -0.022548 0.058488 0.019500
endloop
endfacet
facet normal 0.995186 -0.098005 0.000000
outer loop
vertex -0.022500 0.058000 0.019500
vertex -0.022500 0.058000 0.074500
vertex -0.022548 0.057512 0.074500
endloop
endfacet
facet normal 0.995184 -0.098022 0.000000
outer loop
vertex -0.022548 0.057512 0.074500
vertex -0.022548 0.057512 0.019500
vertex -0.022500 0.058000 0.019500
endloop
endfacet
facet normal 0.956940 -0.290285 0.000000
outer loop
vertex -0.022548 0.057512 0.019500
vertex -0.022548 0.057512 0.074500
vertex -0.022690 0.057043 0.074500
endloop
endfacet
facet normal 0.956938 -0.290293 0.000000
outer loop
vertex -0.022690 0.057043 0.074500
vertex -0.022690 0.057043 0.019500
vertex -0.022548 0.057512 0.019500
endloop
endfacet
facet normal 0.881924 -0.471392 0.000000
outer loop
vertex -0.022690 0.057043 0.019500
vertex -0.022690 0.057043 0.074500
vertex -0.022921 0.056611 0.074500
endloop
endfacet
facet normal 0.881924 -0.471392 0.000000
outer loop
vertex -0.022921 0.056611 0.074500
vertex -0.022921 0.056611 0.019500
vertex -0.022690 0.057043 0.019500
endloop
endfacet
facet normal 0.773007 -0.634398 0.000000
outer loop
vertex -0.022921 0.056611 0.019500
vertex -0.022921 0.056611 0.074500
vertex -0.023232 0.056232 0.074500
endloop
endfacet
facet normal 0.773011 -0.634393 0.000000
outer loop
vertex -0.023232 0.056232 0.074500
vertex -0.023232 0.056232 0.019500
vertex -0.022921 0.056611 0.019500
endloop
endfacet
facet normal 0.634396 -0.773008 0.000000
outer loop
vertex -0.023232 0.056232 0.019500
vertex -0.023232 0.056232 0.074500
vertex -0.023611 0.055921 0.074500
endloop
endfacet
facet normal 0.634396 -0.773008 0.000000
outer loop
vertex -0.023611 0.055921 0.074500
vertex -0.023611 0.055921 0.019500
vertex -0.023232 0.056232 0.019500
endloop
endfacet
facet normal 0.471391 -0.881925 0.000000
outer loop
vertex -0.023611 0.055921 0.019500
vertex -0.023611 0.055921 0.074500
vertex -0.024043 0.055690 0.074500
endloop
endfacet
facet normal 0.471398 -0.881921 0.000000
outer loop
vertex -0.024043 0.055690 0.074500
vertex -0.024043 0.055690 0.019500
vertex -0.023611 0.055921 0.019500
endloop
endfacet
facet normal 0.290285 -0.956940 0.000000
outer loop
vertex -0.024043 0.055690 0.019500
vertex -0.024043 0.055690 0.074500
vertex -0.024512 0.055548 0.074500
endloop
endfacet
facet normal 0.290285 -0.956940 0.000000
outer loop
vertex -0.024512 0.055548 0.074500
vertex -0.024512 0.055548 0.019500
vertex -0.024043 0.055690 0.019500
endloop
endfacet
facet normal 0.098020 -0.995184 0.000000
outer loop
vertex -0.024512 0.055548 0.019500
vertex -0.024512 0.055548 0.074500
vertex -0.025000 0.055500 0.074500
endloop
endfacet
facet normal 0.098019 -0.995185 0.000000
outer loop
vertex -0.025000 0.055500 0.074500
vertex -0.025000 0.055500 0.019500
vertex -0.024512 0.055548 0.019500
endloop
endfacet
facet normal -0.098018 -0.995185 0.000000
outer loop
vertex -0.025000 0.055500 0.019500
vertex -0.025000 0.055500 0.074500
vertex -0.025488 0.055548 0.074500
endloop
endfacet
facet normal -0.098019 -0.995185 0.000000
outer loop
vertex -0.025488 0.055548 0.074500
vertex -0.025488 0.055548 0.019500
vertex -0.025000 0.055500 0.019500
endloop
endfacet
facet normal -0.290285 -0.956940 0.000000
outer loop
vertex -0.025488 0.055548 0.019500
vertex -0.025488 0.055548 0.074500
vertex -0.025957 0.055690 0.074500
endloop
endfacet
facet normal -0.290285 -0.956940 0.000000
outer loop
vertex -0.025957 0.055690 0.074500
vertex -0.025957 0.055690 0.019500
vertex -0.025488 0.055548 0.019500
endloop
endfacet
facet normal -0.471398 -0.881921 0.000000
outer loop
vertex -0.025957 0.055690 0.019500
vertex -0.025957 0.055690 0.074500
vertex -0.026389 0.055921 0.074500
endloop
endfacet
facet normal -0.471398 -0.881921 0.000000
outer loop
vertex -0.026389 0.055921 0.074500
vertex -0.026389 0.055921 0.019500
vertex -0.025957 0.055690 0.019500
endloop
endfacet
facet normal -0.634392 -0.773012 0.000000
outer loop
vertex -0.026389 0.055921 0.019500
vertex -0.026389 0.055921 0.074500
vertex -0.026768 0.056232 0.074500
endloop
endfacet
facet normal -0.634396 -0.773008 0.000000
outer loop
vertex -0.026768 0.056232 0.074500
vertex -0.026768 0.056232 0.019500
vertex -0.026389 0.055921 0.019500
endloop
endfacet
facet normal -0.773014 -0.634389 0.000000
outer loop
vertex -0.026768 0.056232 0.019500
vertex -0.026768 0.056232 0.074500
vertex -0.027079 0.056611 0.074500
endloop
endfacet
facet normal -0.773010 -0.634394 0.000000
outer loop
vertex -0.027079 0.056611 0.074500
vertex -0.027079 0.056611 0.019500
vertex -0.026768 0.056232 0.019500
endloop
endfacet
facet normal -0.881922 -0.471395 0.000000
outer loop
vertex -0.027079 0.056611 0.019500
vertex -0.027079 0.056611 0.074500
vertex -0.027310 0.057043 0.074500
endloop
endfacet
facet normal -0.881919 -0.471402 0.000000
outer loop
vertex -0.027310 0.057043 0.074500
vertex -0.027310 0.057043 0.019500
vertex -0.027079 0.056611 0.019500
endloop
endfacet
facet normal -0.956943 -0.290275 0.000000
outer loop
vertex -0.027310 0.057043 0.019500
vertex -0.027310 0.057043 0.074500
vertex -0.027452 0.057512 0.074500
endloop
endfacet
facet normal -0.956939 -0.290291 0.000000
outer loop
vertex -0.027452 0.057512 0.074500
vertex -0.027452 0.057512 0.019500
vertex -0.027310 0.057043 0.019500
endloop
endfacet
facet normal -0.995185 -0.098014 0.000000
outer loop
vertex -0.027452 0.057512 0.019500
vertex -0.027452 0.057512 0.074500
vertex -0.027500 0.058000 0.074500
endloop
endfacet
facet normal -0.995185 -0.098014 0.000000
outer loop
vertex -0.027500 0.058000 0.074500
vertex -0.027500 0.058000 0.019500
vertex -0.027452 0.057512 0.019500
endloop
endfacet
facet normal -0.995184 0.098022 0.000000
outer loop
vertex -0.027500 0.058000 0.019500
vertex -0.027500 0.058000 0.074500
vertex -0.027452 0.058488 0.074500
endloop
endfacet
facet normal -0.995185 0.098014 0.000000
outer loop
vertex -0.027452 0.058488 0.074500
vertex -0.027452 0.058488 0.019500
vertex -0.027500 0.058000 0.019500
endloop
endfacet
facet normal -0.956940 0.290285 0.000000
outer loop
vertex -0.027452 0.058488 0.019500
vertex -0.027452 0.058488 0.074500
vertex -0.027310 0.058957 0.074500
endloop
endfacet
facet normal -0.956938 0.290293 0.000000
outer loop
vertex -0.027310 0.058957 0.074500
vertex -0.027310 0.058957 0.019500
vertex -0.027452 0.058488 0.019500
endloop
endfacet
facet normal -0.881924 0.471392 0.000000
outer loop
vertex -0.027310 0.058957 0.019500
vertex -0.027310 0.058957 0.074500
vertex -0.027079 0.059389 0.074500
endloop
endfacet
facet normal -0.881924 0.471392 0.000000
outer loop
vertex -0.027079 0.059389 0.074500
vertex -0.027079 0.059389 0.019500
vertex -0.027310 0.058957 0.019500
endloop
endfacet
facet normal -0.773007 0.634398 0.000000
outer loop
vertex -0.027079 0.059389 0.019500
vertex -0.027079 0.059389 0.074500
vertex -0.026768 0.059768 0.074500
endloop
endfacet
facet normal -0.773007 0.634398 0.000000
outer loop
vertex -0.026768 0.059768 0.074500
vertex -0.026768 0.059768 0.019500
vertex -0.027079 0.059389 0.019500
endloop
endfacet
facet normal -0.634392 0.773012 0.000000
outer loop
vertex -0.026768 0.059768 0.019500
vertex -0.026768 0.059768 0.074500
vertex -0.026389 0.060079 0.074500
endloop
endfacet
facet normal -0.634392 0.773012 0.000000
outer loop
vertex -0.026389 0.060079 0.074500
vertex -0.026389 0.060079 0.019500
vertex -0.026768 0.059768 0.019500
endloop
endfacet
facet normal -0.471391 0.881925 0.000000
outer loop
vertex -0.026389 0.060079 0.019500
vertex -0.026389 0.060079 0.074500
vertex -0.025957 0.060310 0.074500
endloop
endfacet
facet normal -0.471398 0.881921 0.000000
outer loop
vertex -0.025957 0.060310 0.074500
vertex -0.025957 0.060310 0.019500
vertex -0.026389 0.060079 0.019500
endloop
endfacet
facet normal 0.000010 0.000000 1.000000
outer loop
vertex -0.024043 0.060310 0.074500
vertex -0.024512 0.060452 0.074500
vertex -0.025000 0.060500 0.074500
endloop
endfacet
facet normal 0.000000 0.000000 1.000000
outer loop
vertex -0.025000 0.060500 0.074500
vertex -0.025488 0.060452 0.074500
vertex -0.025957 0.060310 0.074500
endloop
endfacet
facet normal 0.000078 0.000000 1.000000
outer loop
vertex -0.025957 0.060310 0.074500
vertex -0.026389 0.060079 0.074500
vertex -0.026768 0.059768 0.074500
endloop
endfacet
facet normal 0.000000 0.000000 1.000000
outer loop
vertex -0.026768 0.059768 0.074500
vertex -0.027079 0.059389 0.074500
vertex -0.027310 0.058957 0.074500
endloop
endfacet
facet normal 0.000155 0.000000 1.000000
outer loop
vertex -0.027310 0.058957 0.074500
vertex -0.027452 0.058488 0.074500
vertex -0.027500 0.058000 0.074500
endloop
endfacet
facet normal -0.000155 0.000000 1.000000
outer loop
vertex -0.027500 0.058000 0.074500
vertex -0.027452 0.057512 0.074500
vertex -0.027310 0.057043 0.074500
endloop
endfacet
facet normal 0.000078 0.000000 1.000000
outer loop
vertex -0.027310 0.057043 0.074500
vertex -0.027079 0.056611 0.074500
vertex -0.026768 0.056232 0.074500
endloop
endfacet
facet normal -0.000078 0.000000 1.000000
outer loop
vertex -0.026768 0.056232 0.074500
vertex -0.026389 0.055921 0.074500
vertex -0.025957 0.055690 0.074500
endloop
endfacet
facet normal -0.000010 0.000000 1.000000
outer loop
vertex -0.025957 0.055690 0.074500
vertex -0.025488 0.055548 0.074500
vertex -0.025000 0.055500 0.074500
endloop
endfacet
facet normal 0.000000 0.000000 1.000000
outer loop
vertex -0.025000 0.055500 0.074500
vertex -0.024512 0.055548 0.074500
vertex -0.024043 0.055690 0.074500
endloop
endfacet
facet normal 0.000078 0.000000 1.000000
outer loop
vertex -0.024043 0.055690 0.074500
vertex -0.023611 0.055921 0.074500
vertex -0.023232 0.056232 0.074500
endloop
endfacet
facet normal 0.000000 0.000000 1.000000
outer loop
vertex -0.023232 0.056232 0.074500
vertex -0.022921 0.056611 0.074500
vertex -0.022690 0.057043 0.074500
endloop
endfacet
facet normal -0.000155 0.000000 1.000000
outer loop
vertex -0.022690 0.057043 0.074500
vertex -0.022548 0.057512 0.074500
vertex -0.022500 0.058000 0.074500
endloop
endfacet
facet normal -0.000155 0.000000 1.000000
outer loop
vertex -0.022500 0.058000 0.074500
vertex -0.022548 0.058488 0.074500
vertex -0.022690 0.058957 0.074500
endloop
endfacet
facet normal -0.000078 0.000000 1.000000
outer loop
vertex -0.022690 0.058957 0.074500
vertex -0.022921 0.059389 0.074500
vertex -0.023232 0.059768 0.074500
endloop
endfacet
facet normal 0.000078 0.000000 1.000000
outer loop
vertex -0.023232 0.059768 0.074500
vertex -0.023611 0.060079 0.074500
vertex -0.024043 0.060310 0.074500
endloop
endfacet
facet normal 0.000000 0.000000 1.000000
outer loop
vertex -0.024043 0.060310 0.074500
vertex -0.025000 0.060500 0.074500
vertex -0.025957 0.060310 0.074500
endloop
endfacet
facet normal 0.000000 0.000000 1.000000
outer loop
vertex -0.025957 0.060310 0.074500
vertex -0.026768 0.059768 0.074500
vertex -0.027310 0.058957 0.074500
endloop
endfacet
facet normal -0.000040 0.000000 1.000000
outer loop
vertex -0.027310 0.058957 0.074500
vertex -0.027500 0.058000 0.074500
vertex -0.027310 0.057043 0.074500
endloop
endfacet
facet normal 0.000020 0.000000 1.000000
outer loop
vertex -0.027310 0.057043 0.074500
vertex -0.026768 0.056232 0.074500
vertex -0.025957 0.055690 0.074500
endloop
endfacet
facet normal 0.000000 0.000000 1.000000
outer loop
vertex -0.025957 0.055690 0.074500
vertex -0.025000 0.055500 0.074500
vertex -0.024043 0.055690 0.074500
endloop
endfacet
facet normal -0.000020 0.000000 1.000000
outer loop
vertex -0.024043 0.055690 0.074500
vertex -0.023232 0.056232 0.074500
vertex -0.022690 0.057043 0.074500
endloop
endfacet
facet normal 0.000000 0.000000 1.000000
outer loop
vertex -0.022690 0.057043 0.074500
vertex -0.022500 0.058000 0.074500
vertex -0.022690 0.058957 0.074500
endloop
endfacet
facet normal -0.000020 0.000000 1.000000
outer loop
vertex -0.022690 0.058957 0.074500
vertex -0.023232 0.059768 0.074500
vertex -0.024043 0.060310 0.074500
endloop
endfacet
facet normal 0.000000 0.000000 1.000000
outer loop
vertex -0.024043 0.060310 0.074500
vertex -0.025957 0.060310 0.074500
vertex -0.027310 0.058957 0.074500
endloop
endfacet
facet normal 0.000000 0.000000 1.000000
outer loop
vertex -0.027310 0.058957 0.074500
vertex -0.027310 0.057043 0.074500
vertex -0.025957 0.055690 0.074500
endloop
endfacet
facet normal 0.000000 0.000000 1.000000
outer loop
vertex -0.025957 0.055690 0.074500
vertex -0.024043 0.055690 0.074500
vertex -0.022690 0.057043 0.074500
endloop
endfacet
facet normal 0.000011 0.000000 1.000000
outer loop
vertex -0.022690 0.057043 0.074500
vertex -0.022690 0.058957 0.074500
vertex -0.024043 0.060310 0.074500
endloop
endfacet
facet normal 0.000002 0.000000 1.000000
outer loop
vertex -0.024043 0.060310 0.074500
vertex -0.027310 0.058957 0.074500
vertex -0.025957 0.055690 0.074500
endloop
endfacet
facet normal -0.000002 0.000000 1.000000
outer loop
vertex -0.025957 0.055690 0.074500
vertex -0.022690 0.057043 0.074500
vertex -0.024043 0.060310 0.074500
endloop
endfacet
facet normal -0.098019 0.995185 0.000000
outer loop
vertex -0.025000 0.060500 0.074500
vertex -0.025000 0.060500 0.019500
vertex -0.025488 0.060452 0.019500
endloop
endfacet
facet normal -0.098020 0.995184 0.000000
outer loop
vertex -0.025488 0.060452 0.019500
vertex -0.025488 0.060452 0.074500
vertex -0.025000 0.060500 0.074500
endloop
endfacet
facet normal -0.290285 0.956940 0.000000
outer loop
vertex -0.025957 0.060310 0.019500
vertex -0.025957 0.060310 0.074500
vertex -0.025488 0.060452 0.074500
endloop
endfacet
facet normal -0.290288 0.956939 0.000000
outer loop
vertex -0.025488 0.060452 0.074500
vertex -0.025488 0.060452 0.019500
vertex -0.025957 0.060310 0.019500
endloop
endfacet
facet normal 0.000000 0.000000 -1.000000
outer loop
vertex -0.025488 0.060452 0.019500
vertex -0.025000 0.060500 0.019500
vertex -0.024512 0.060452 0.019500
endloop
endfacet
facet normal -0.000019 0.000000 -1.000000
outer loop
vertex -0.024512 0.060452 0.019500
vertex -0.024043 0.060310 0.019500
vertex -0.023611 0.060079 0.019500
endloop
endfacet
facet normal 0.000000 0.000000 -1.000000
outer loop
vertex -0.023611 0.060079 0.019500
vertex -0.023232 0.059768 0.019500
vertex -0.022921 0.059389 0.019500
endloop
endfacet
facet normal -0.000039 0.000000 -1.000000
outer loop
vertex -0.022921 0.059389 0.019500
vertex -0.022690 0.058957 0.019500
vertex -0.022548 0.058488 0.019500
endloop
endfacet
facet normal 0.000000 0.000000 -1.000000
outer loop
vertex -0.022548 0.058488 0.019500
vertex -0.022500 0.058000 0.019500
vertex -0.022548 0.057512 0.019500
endloop
endfacet
facet normal -0.000039 0.000000 -1.000000
outer loop
vertex -0.022548 0.057512 0.019500
vertex -0.022690 0.057043 0.019500
vertex -0.022921 0.056611 0.019500
endloop
endfacet
facet normal 0.000000 0.000000 -1.000000
outer loop
vertex -0.022921 0.056611 0.019500
vertex -0.023232 0.056232 0.019500
vertex -0.023611 0.055921 0.019500
endloop
endfacet
facet normal -0.000019 0.000000 -1.000000
outer loop
vertex -0.023611 0.055921 0.019500
vertex -0.024043 0.055690 0.019500
vertex -0.024512 0.055548 0.019500
endloop
endfacet
facet normal 0.000000 0.000000 -1.000000
outer loop
vertex -0.024512 0.055548 0.019500
vertex -0.025000 0.055500 0.019500
vertex -0.025488 0.055548 0.019500
endloop
endfacet
facet normal 0.000019 0.000000 -1.000000
outer loop
vertex -0.025488 0.055548 0.019500
vertex -0.025957 0.055690 0.019500
vertex -0.026389 0.055921 0.019500
endloop
endfacet
facet normal 0.000000 0.000000 -1.000000
outer loop
vertex -0.026389 0.055921 0.019500
vertex -0.026768 0.056232 0.019500
vertex -0.027079 0.056611 0.019500
endloop
endfacet
facet normal 0.000039 0.000000 -1.000000
outer loop
vertex -0.027079 0.056611 0.019500
vertex -0.027310 0.057043 0.019500
vertex -0.027452 0.057512 0.019500
endloop
endfacet
facet normal 0.000000 0.000000 -1.000000
outer loop
vertex -0.027452 0.057512 0.019500
vertex -0.027500 0.058000 0.019500
vertex -0.027452 0.058488 0.019500
endloop
endfacet
facet normal 0.000039 0.000000 -1.000000
outer loop
vertex -0.027452 0.058488 0.019500
vertex -0.027310 0.058957 0.019500
vertex -0.027079 0.059389 0.019500
endloop
endfacet
facet normal -0.000019 0.000000 -1.000000
outer loop
vertex -0.027079 0.059389 0.019500
vertex -0.026768 0.059768 0.019500
vertex -0.026389 0.060079 0.019500
endloop
endfacet
facet normal 0.000019 0.000000 -1.000000
outer loop
vertex -0.026389 0.060079 0.019500
vertex -0.025957 0.060310 0.019500
vertex -0.025488 0.060452 0.019500
endloop
endfacet
facet normal 0.000000 0.000000 -1.000000
outer loop
vertex -0.025488 0.060452 0.019500
vertex -0.024512 0.060452 0.019500
vertex -0.023611 0.060079 0.019500
endloop
endfacet
facet normal 0.000010 0.000000 -1.000000
outer loop
vertex -0.023611 0.060079 0.019500
vertex -0.022921 0.059389 0.019500
vertex -0.022548 0.058488 0.019500
endloop
endfacet
facet normal 0.000000 0.000000 -1.000000
outer loop
vertex -0.022548 0.058488 0.019500
vertex -0.022548 0.057512 0.019500
vertex -0.022921 0.056611 0.019500
endloop
endfacet
facet normal 0.000002 0.000000 -1.000000
outer loop
vertex -0.022921 0.056611 0.019500
vertex -0.023611 0.055921 0.019500
vertex -0.024512 0.055548 0.019500
endloop
endfacet
facet normal 0.000000 0.000000 -1.000000
outer loop
vertex -0.024512 0.055548 0.019500
vertex -0.025488 0.055548 0.019500
vertex -0.026389 0.055921 0.019500
endloop
endfacet
facet normal -0.000010 0.000000 -1.000000
outer loop
vertex -0.026389 0.055921 0.019500
vertex -0.027079 0.056611 0.019500
vertex -0.027452 0.057512 0.019500
endloop
endfacet
facet normal 0.000000 0.000000 -1.000000
outer loop
vertex -0.027452 0.057512 0.019500
vertex -0.027452 0.058488 0.019500
vertex -0.027079 0.059389 0.019500
endloop
endfacet
facet normal -0.000002 0.000000 -1.000000
outer loop
vertex -0.027079 0.059389 0.019500
vertex -0.026389 0.060079 0.019500
vertex -0.025488 0.060452 0.019500
endloop
endfacet
facet normal -0.000003 0.000000 -1.000000
outer loop
vertex -0.025488 0.060452 0.019500
vertex -0.023611 0.060079 0.019500
vertex -0.022548 0.058488 0.019500
endloop
endfacet
facet normal 0.000000 0.000000 -1.000000
outer loop
vertex -0.022548 0.058488 0.019500
vertex -0.022921 0.056611 0.019500
vertex -0.024512 0.055548 0.019500
endloop
endfacet
facet normal 0.000003 0.000000 -1.000000
outer loop
vertex -0.024512 0.055548 0.019500
vertex -0.026389 0.055921 0.019500
vertex -0.027452 0.057512 0.019500
endloop
endfacet
facet normal 0.000000 0.000000 -1.000000
outer loop
vertex -0.027452 0.057512 0.019500
vertex -0.027079 0.059389 0.019500
vertex -0.025488 0.060452 0.019500
endloop
endfacet
facet normal 0.000000 0.000000 -1.000000
outer loop
vertex -0.025488 0.060452 0.019500
vertex -0.022548 0.058488 0.019500
vertex -0.024512 0.055548 0.019500
endloop
endfacet
facet normal 0.000000 0.000000 -1.000000
outer loop
vertex -0.024512 0.055548 0.019500
vertex -0.027452 0.057512 0.019500
vertex -0.025488 0.060452 0.019500
endloop
endfacet
endsolid Exported from Blender-2.76 (sub 0)
